<svg xmlns="http://www.w3.org/2000/svg" version="1.1" xmlns:xlink="http://www.w3.org/1999/xlink" width="520" height="520"><svg width="520" height="520" viewBox="0 0 520 520" fill="none" xmlns="http://www.w3.org/2000/svg">
<circle cx="260" cy="260" r="260" fill="white" data-darkreader-inline-fill="" style="--darkreader-inline-fill: var(--darkreader-background-ffffff, #515253);"></circle>
<circle cx="260" cy="260" r="256" fill="#2C28D6" data-darkreader-inline-fill="" style="--darkreader-inline-fill: var(--darkreader-background-2c28d6, #5856b7);"></circle>
<path d="M120.8 187.2H140.4L196.2 327H175.4L161.4 292.2H99.6L86 327H65L120.8 187.2ZM155.8 275.2L130.6 209.8L105.4 275.2H155.8ZM218.219 187.2H282.419C294.819 187.2 304.419 190.4 311.219 196.8C318.019 203.2 321.419 212.533 321.419 224.8C321.419 231.733 319.752 237.867 316.419 243.2C313.219 248.4 308.952 252.267 303.619 254.8C318.552 259.2 326.019 270.067 326.019 287.4C326.019 295.533 324.219 302.6 320.619 308.6C317.152 314.467 312.352 319 306.219 322.2C300.085 325.4 293.285 327 285.819 327H218.219V187.2ZM279.819 247.2C286.352 247.2 291.485 245.4 295.219 241.8C298.952 238.2 300.819 232.867 300.819 225.8C300.819 217.667 298.952 212 295.219 208.8C291.619 205.467 286.019 203.8 278.419 203.8H238.619V247.2H279.819ZM281.219 310.4C289.085 310.4 295.085 308.667 299.219 305.2C303.352 301.733 305.419 295.8 305.419 287.4C305.419 279 303.219 273 298.819 269.4C294.552 265.8 288.085 264 279.419 264H238.619V310.4H281.219ZM348.102 187.2H412.302C424.702 187.2 434.302 190.4 441.102 196.8C447.902 203.2 451.302 212.533 451.302 224.8C451.302 231.733 449.635 237.867 446.302 243.2C443.102 248.4 438.835 252.267 433.502 254.8C448.435 259.2 455.902 270.067 455.902 287.4C455.902 295.533 454.102 302.6 450.502 308.6C447.035 314.467 442.235 319 436.102 322.2C429.968 325.4 423.168 327 415.702 327H348.102V187.2ZM409.702 247.2C416.235 247.2 421.368 245.4 425.102 241.8C428.835 238.2 430.702 232.867 430.702 225.8C430.702 217.667 428.835 212 425.102 208.8C421.502 205.467 415.902 203.8 408.302 203.8H368.502V247.2H409.702ZM411.102 310.4C418.968 310.4 424.968 308.667 429.102 305.2C433.235 301.733 435.302 295.8 435.302 287.4C435.302 279 433.102 273 428.702 269.4C424.435 265.8 417.968 264 409.302 264H368.502V310.4H411.102Z" fill="white" data-darkreader-inline-fill="" style="--darkreader-inline-fill: var(--darkreader-background-ffffff, #515253);"></path>
</svg><style>@media (prefers-color-scheme: light) { :root { filter: none; } }
@media (prefers-color-scheme: dark) { :root { filter: none; } }
</style></svg>